PathFileType	4	(X/Y/Z)	/Users/niels/Desktop/University/Third Semester/Perception and Action/Exam/Gymnastics Motion Tracking/Code for Gym Tracking/Analyzed Data/Webcam_Backflip/id6_1_pure_Sports2D/id6_1_pure_Sports2D_px_person00.trc
DataRate	CameraRate	NumFrames	NumMarkers	Units	OrigDataRate	OrigDataStartFrame	OrigNumFrames
29.81132075471698	29.81132075471698	9	22	m	29.81132075471698	59	159
Frame#	Time	Hip			RHip			RKnee			RAnkle			RBigToe			RSmallToe			RHeel			LHip			LKnee			LAnkle			LBigToe			LSmallToe			LHeel			Neck			Head			Nose			RShoulder			RElbow			RWrist			LShoulder			LElbow			LWrist		
		X1	Y1	Z1	X2	Y2	Z2	X3	Y3	Z3	X4	Y4	Z4	X5	Y5	Z5	X6	Y6	Z6	X7	Y7	Z7	X8	Y8	Z8	X9	Y9	Z9	X10	Y10	Z10	X11	Y11	Z11	X12	Y12	Z12	X13	Y13	Z13	X14	Y14	Z14	X15	Y15	Z15	X16	Y16	Z16	X17	Y17	Z17	X18	Y18	Z18	X19	Y19	Z19	X20	Y20	Z20	X21	Y21	Z21	X22	Y22	Z22
59	1.9791139240506328	0.8157690467384189	-0.6604654229228896	0.0	0.8154110838898817	-0.6616143251948648	0.0	0.824298243830111	-0.758395160704627	0.0	0.7937361671123966	-0.8437740753064177	0.0	0.8185252687449013	-0.8643526871189887	0.0	0.8119950448888629	-0.8662056687930924	0.0	0.7832648848067779	-0.8585612132168108	0.0	0.81607099184235	-0.6587875306111047	0.0	0.824227251155711	-0.7562377500518013	0.0	0.7960263622010764	-0.839223717139696	0.0	0.8253422866194094	-0.8597879760254347	0.0	0.8198748039831275	-0.8572969567623192	0.0	0.783636953220125	-0.8538628567840286	0.0	0.8354926956091775	-0.5233308724054097	0.0	0.8639819532865397	-0.46308648860095947	0.0	0.8668237969326007	-0.4938743149542908	0.0	0.833787584003339	-0.5329082348363904	0.0	0.8884158014418322	-0.4936013127261871	0.0	0.9255243131232305	-0.446397570503521	0.0	0.825862952087621	-0.5273544139437492	0.0	0.8728486629333956	-0.49233604082660143	0.0	0.9053187723851738	-0.4487754926301782	0.0
60	2.0126582278481013	0.8164077864025598	-0.640174784226415	0.0	0.8156400374152672	-0.6411163265226899	0.0	0.824829990647927	-0.7381631318597472	0.0	0.7939777110113877	-0.8252405042295613	0.0	0.8220741529819285	-0.845754537735792	0.0	0.8149172466122575	-0.8472057142275322	0.0	0.7832725953298131	-0.8400756074361424	0.0	0.8164709384986781	-0.638277562407694	0.0	0.8246806288709276	-0.7360738858686903	0.0	0.7977625305533314	-0.8201256548847031	0.0	0.8283151565729951	-0.8410180644220001	0.0	0.8244065000869071	-0.8372749432478296	0.0	0.7848085900995588	-0.8342092916420554	0.0	0.831595809717558	-0.5037774190088671	0.0	0.8566170988985554	-0.44081478345222613	0.0	0.861823625845236	-0.4726547357355427	0.0	0.830088215924218	-0.513282311100598	0.0	0.8851452709392749	-0.4707638073791082	0.0	0.9214076481114148	-0.4245766987740016	0.0	0.8218049577590033	-0.5080047415785984	0.0	0.8665448294635687	-0.47407779343250994	0.0	0.8978957139291852	-0.430938547821692	0.0
61	2.0462025316455694	0.8170898555806729	-0.611870712475295	0.0	0.816079671899845	-0.6125618387623104	0.0	0.8255673989966351	-0.7102361042672868	0.0	0.7954194817936311	-0.7995853002395755	0.0	0.8260029253216679	-0.8206917204405245	0.0	0.8187000263398533	-0.8218161253518188	0.0	0.784535758982774	-0.8143845475420353	0.0	0.816914838749089	-0.6098610487948787	0.0	0.8250639105685035	-0.7084134676485754	0.0	0.8004990940608173	-0.793784684154553	0.0	0.8317055479804584	-0.8154957399391094	0.0	0.8293933810830807	-0.8105327329625154	0.0	0.7874958724758847	-0.8073809211215619	0.0	0.829540039134775	-0.476670245236323	0.0	0.8526876618497349	-0.41239226774458276	0.0	0.8588756283719129	-0.44501720568738795	0.0	0.828019146578561	-0.4856754550406202	0.0	0.883110916115089	-0.4419366238443879	0.0	0.9198236472084997	-0.39856230033803164	0.0	0.8203766037310507	-0.48094910512919903	0.0	0.8619690681745886	-0.4486014890585829	0.0	0.8927286511313223	-0.4078590769915755	0.0
62	2.079746835443038	0.8176611374926805	-0.5790857966351453	0.0	0.8164990390726954	-0.5794448417879225	0.0	0.8264848810698106	-0.6780560301318492	0.0	0.7978806872001679	-0.7699236609292129	0.0	0.8297038320702369	-0.7929909590252577	0.0	0.8224079393468583	-0.793837248305248	0.0	0.786923455494202	-0.784693504912603	0.0	0.8173528325514784	-0.576940588341936	0.0	0.8255048198248895	-0.6766881589957401	0.0	0.8039539652162462	-0.7634267089498737	0.0	0.8352724822657561	-0.7868676520538397	0.0	0.8342134109630377	-0.7808922381525917	0.0	0.7913746770208137	-0.7768647721873986	0.0	0.8286017401998361	-0.44517354335497994	0.0	0.8509766651086127	-0.38023098383843895	0.0	0.857202106947561	-0.41358244961887536	0.0	0.8268023230245319	-0.4532393173102145	0.0	0.8818979574115428	-0.4092605227059057	0.0	0.9196191639957422	-0.3694468105185497	0.0	0.8208748920277882	-0.44939454070328905	0.0	0.85984358213884	-0.4189155052735149	0.0	0.8910639770716705	-0.38226827256627066	0.0
63	2.113291139240506	0.8178907852569591	-0.5449411620034662	0.0	0.816581350473773	-0.5448492171385487	0.0	0.8275444088497251	-0.6446570477017521	0.0	0.8011387946214173	-0.7390461523300508	0.0	0.8330427659317103	-0.7655020878138107	0.0	0.8256234945077541	-0.7660867112083648	0.0	0.7902106736530666	-0.753634056088603	0.0	0.8176083577573849	-0.5424704137807861	0.0	0.8261144121019147	-0.643848047239157	0.0	0.8077644495115114	-0.732032114804798	0.0	0.8387956707355734	-0.758123205495439	0.0	0.838553043742907	-0.7514476044724987	0.0	0.7958209089576344	-0.7455403835102664	0.0	0.8282840208358409	-0.4122603574889281	0.0	0.850641479139091	-0.3465829147489379	0.0	0.8564576368374893	-0.38078800998537504	0.0	0.8259691055687038	-0.4189984942181785	0.0	0.881371814360294	-0.374839378260837	0.0	0.920106065215565	-0.3385444133609702	0.0	0.8223907256084824	-0.41627256464225454	0.0	0.8605864595561891	-0.3883519018504377	0.0	0.8937459782899017	-0.3568347101179445	0.0
64	2.1468354430379746	0.8176262910045682	-0.5117774706156983	0.0	0.8161773176659102	-0.5111445870060826	0.0	0.8287898399898255	-0.6122743177029304	0.0	0.805002076243398	-0.709016137028604	0.0	0.8362199672011852	-0.7397015880537232	0.0	0.8284862131494346	-0.7400102047889472	0.0	0.7941720924898433	-0.7231041473624427	0.0	0.8173844586699933	-0.5087699011760111	0.0	0.8269471414677311	-0.6120600012477979	0.0	0.8115268432523133	-0.7018692833515365	0.0	0.8420405674021617	-0.7312075083016732	0.0	0.8422730296633564	-0.7241587412437358	0.0	0.8001681739437622	-0.7154304063514276	0.0	0.8283057676228978	-0.38021280426007076	0.0	0.851290575330807	-0.3133301289469046	0.0	0.8566454273686661	-0.3485054972912615	0.0	0.8253849657345432	-0.38537885723663173	0.0	0.8816446494916671	-0.3405367141240254	0.0	0.9212952902591021	-0.3072382799180287	0.0	0.824020130358696	-0.3838857441066466	0.0	0.8630810087978349	-0.35999598257782844	0.0	0.8991199291356009	-0.33380417118866806	0.0
65	2.180379746835443	0.816883346372373	-0.4811345817770191	0.0	0.8153692160501809	-0.47996112638076144	0.0	0.8302766535161152	-0.5823064036297394	0.0	0.809307651159274	-0.681151643897286	0.0	0.8394668544866515	-0.7160597516038353	0.0	0.8313553275189993	-0.7160666898668275	0.0	0.798606399945602	-0.6944739188557093	0.0	0.8164275573418057	-0.4775422469817824	0.0	0.828004331877935	-0.5827099719344003	0.0	0.8148757516021868	-0.6744203650553758	0.0	0.84467369520412	-0.7071578188698993	0.0	0.8452182019279557	-0.7000123751674917	0.0	0.8039239178758686	-0.6878282029952323	0.0	0.8285578698246987	-0.350489276625942	0.0	0.8526721608308171	-0.28200940056057483	0.0	0.857764172183296	-0.31806454552599517	0.0	0.825093875772133	-0.3540930831887978	0.0	0.8827975971933505	-0.30816048299643906	0.0	0.923446283584382	-0.27723517025012256	0.0	0.8251932641099258	-0.35386614118733317	0.0	0.8656497861517529	-0.3361156502071318	0.0	0.9044697069562543	-0.31455335644619464	0.0
66	2.213924050632911	0.8158275045438674	-0.4539067657153578	0.0	0.8143502559720881	-0.45227655115208026	0.0	0.8319426086030176	-0.5554755450653985	0.0	0.8138964392825688	-0.6561738650034871	0.0	0.8429004307621842	-0.6946050896436012	0.0	0.8345087365154392	-0.6942910963184038	0.0	0.8033153414117834	-0.668693006501637	0.0	0.8147128604032825	-0.44989729318687477	0.0	0.8292444204998679	-0.5565264851200711	0.0	0.817674960583523	-0.6504239654159506	0.0	0.8464965489147126	-0.6863207140183325	0.0	0.8473999941351056	-0.6792819272360964	0.0	0.806935662863114	-0.6634332040867641	0.0	0.8290324464263972	-0.3239477956403587	0.0	0.8544676432454751	-0.2539514176507904	0.0	0.8595604320464518	-0.2905487059394999	0.0	0.8251513722180054	-0.32631536620547313	0.0	0.8846436252704208	-0.27944478842427706	0.0	0.9264740434843961	-0.2505041049051933	0.0	0.8258117239532338	-0.3273411683708741	0.0	0.8675181250736995	-0.3175211097285758	0.0	0.9083444989655295	-0.29929307485334006	0.0
67	2.2474683544303797	0.8146875866344686	-0.4305532459235725	0.0	0.8133242344920414	-0.4285884133089605	0.0	0.8336185418108906	-0.5321383412669382	0.0	0.8185626697174868	-0.6344267440554465	0.0	0.846543629572114	-0.67534773656994	0.0	0.8380510332490083	-0.6747179300778311	0.0	0.8080561803897732	-0.6462981659031515	0.0	0.8125011518944357	-0.4264084932607024	0.0	0.8305591559735408	-0.5338342543813973	0.0	0.8200841815783754	-0.6300166154619565	0.0	0.8478290302661247	-0.6685096028558596	0.0	0.8492569405953292	-0.66170749858892	0.0	0.8094096362910246	-0.6424396317938627	0.0	0.8297296100743128	-0.30113215682840244	0.0	0.8564210755697778	-0.23024699208634886	0.0	0.8616109332147193	-0.2669409480656514	0.0	0.8255773459914886	-0.3028069604094019	0.0	0.8867318853584001	-0.2555969398916953	0.0	0.9298624896254201	-0.228593128376795	0.0	0.8261143058194703	-0.305014575016116	0.0	0.8688244145382522	-0.3035293596966014	0.0	0.9107977849220509	-0.2873603592717984	0.0
